<svg width="65" height="50" viewBox="0 0 65 50" fill="none" xmlns="http://www.w3.org/2000/svg">
<path d="M44.749 44.2713C44.6041 44.292 45.818 45.2055 45.9913 45.3163C46.5217 45.6558 47.3422 45.9193 47.9717 45.974C48.9797 46.0617 50.0062 46.1892 51.019 46.0836C52.8242 45.8956 54.3988 44.8092 55.7836 43.7013C57.5985 42.2495 58.2848 39.7778 57.4351 37.6287C57.1986 37.0304 56.8896 36.52 56.5217 35.9917C56.3762 35.7828 55.6518 35.1744 56.0832 34.9979C57.4327 34.4458 58.859 33.9919 60.0659 33.1564C63.258 30.9464 63.1196 26.3086 62.2582 22.9329C61.7824 21.0683 61.104 19.114 59.9344 17.5545C58.8978 16.1724 56.6074 15.5361 55.0236 15.3183C53.9862 15.1757 52.9054 15.1579 51.8594 15.216C51.2555 15.2495 50.5367 15.624 50.5367 14.8214C50.5367 13.1925 50.4789 11.9309 49.5501 10.561C47.9993 8.27347 46.3382 6.1481 44.1425 4.44447C42.9041 3.48365 41.4816 2.64536 39.9332 2.33255C38.8217 2.10799 37.6821 2.0437 36.5644 1.85024C34.4253 1.48002 32.7264 1.75551 30.8644 2.77832C29.892 3.31246 29.8456 4.69436 28.6575 4.29832C25.2796 3.17236 21.8942 2.84736 18.6313 4.55409C17.2528 5.27517 15.5231 6.00959 14.919 7.54293C14.4128 8.82808 13.3276 10.9713 14.3636 12.2491C14.7651 12.7442 11.2219 13.4265 10.8413 13.5206C8.9905 13.9782 7.16373 14.7632 5.46289 15.6106C4.39434 16.143 3.44064 16.813 2.94904 17.9345C2.30542 19.4027 2.00589 21.4757 2.42289 23.0279C2.7414 24.2135 3.50901 25.1138 4.42519 25.8925C5.46306 26.7747 6.53523 27.8307 7.78673 28.4064C8.47818 28.7244 9.23443 28.9412 9.9498 29.2029C10.2467 29.3115 12.3129 29.6124 12.3248 29.7437C12.3377 29.8853 11.1733 30.2079 11.0094 30.2625C10.1773 30.5399 9.48187 31.0498 8.83173 31.6364C7.21553 33.0945 6.40746 35.3431 6.76365 37.5337C7.00839 39.0388 8.11557 40.7869 8.98519 42.0206C9.47072 42.7094 10.0038 43.4661 10.5636 44.096C11.6927 45.3662 13.4228 46.4703 14.9483 47.1944C16.085 47.734 17.1998 48.0178 18.4559 48.086C20.0907 48.1746 22.768 48.524 24.229 47.4283" stroke="#94CBFF" stroke-width="2.63961" stroke-linecap="round"/>
</svg>
