<svg width="35" height="21" viewBox="0 0 35 21" fill="none" xmlns="http://www.w3.org/2000/svg">
<path d="M3.78415 18.304C3.78415 15.0495 5.82741 12.793 8.02261 10.6455C8.6725 10.0098 9.49751 9.65899 10.288 9.22782C11.1519 8.7566 11.9453 8.21965 12.7726 7.69321C13.8845 6.98566 15.1505 6.22862 16.4995 6.10014C18.5645 5.90347 21.0766 6.00843 23.0472 6.75783C25.0029 7.50154 26.7318 8.53636 28.528 9.57859C29.9858 10.4245 30.7954 11.6448 31.7726 12.984C32.194 13.5615 32.8529 14.3987 32.9783 15.0886C33.0245 15.3427 33.0879 15.5806 33.1464 15.834C33.3017 16.5068 33.1804 14.5917 33.1757 14.5332C33.0095 12.4677 32.5157 10.6943 31.758 8.77475C31.4656 8.03399 30.8048 7.40861 30.3549 6.75783C30.0389 6.30081 29.6896 5.85637 29.2222 5.54475C27.1915 4.19098 25.0583 3.3538 22.711 2.71668C20.5839 2.13931 18.2331 1.90173 16.0391 1.86899C14.5388 1.84659 13.213 1.76641 11.8957 2.54129C10.3882 3.42807 8.81538 3.84769 7.7303 5.35475C6.42541 7.1671 4.72911 8.66766 3.62338 10.6309C2.76993 12.1462 2.66404 14.0215 2.308 15.6878C2.10236 16.6502 1.78642 19.4746 2.308 18.6401C2.38032 18.5244 2.41188 18.219 2.43954 18.114C2.69817 17.1312 2.97961 16.1543 3.22877 15.169C3.42943 14.3754 3.58021 13.5725 3.78415 12.7794C4.16189 11.3104 5.03032 9.83527 6.09338 8.76013C7.99108 6.84086 10.6276 5.58264 13.0503 4.49245C15.4381 3.41795 18.8356 3.12528 21.3226 3.7836C22.8758 4.19474 24.3654 4.50751 25.6195 5.55937C26.4495 6.25545 27.2356 7.06824 27.9872 7.84667C28.4365 8.31202 29.0725 8.79978 29.3026 9.43244C29.505 9.98913 29.0691 9.23538 28.9372 9.06706C28.4565 8.45381 27.9206 7.88461 27.2857 7.42283C26.4532 6.81741 25.0664 6.56702 24.0995 6.3486C22.0712 5.89037 20.0633 5.63087 17.9976 5.47898C15.4509 5.29172 12.8479 5.86271 10.668 7.27667C9.18066 8.24142 8.08306 9.49029 6.82415 10.7259C6.07981 11.4564 4.65619 12.5309 4.3103 13.5686" stroke="#9AC6EE" stroke-width="2.63961" stroke-linecap="round"/>
</svg>
