<svg width="35" height="21" viewBox="0 0 35 21" fill="none" xmlns="http://www.w3.org/2000/svg">
<path d="M3.66306 18.304C3.66306 15.0495 5.70631 12.793 7.90151 10.6455C8.5514 10.0098 9.37642 9.65899 10.1669 9.22782C11.0308 8.7566 11.8242 8.21965 12.6515 7.69321C13.7634 6.98566 15.0294 6.22862 16.3784 6.10014C18.4434 5.90347 20.9555 6.00843 22.9261 6.75783C24.8818 7.50154 26.6107 8.53636 28.4069 9.57859C29.8647 10.4245 30.6743 11.6448 31.6515 12.984C32.0729 13.5615 32.7318 14.3987 32.8572 15.0886C32.9034 15.3427 32.9669 15.5806 33.0253 15.834C33.1806 16.5068 33.0593 14.5917 33.0546 14.5332C32.8884 12.4677 32.3946 10.6943 31.6369 8.77475C31.3445 8.03399 30.6837 7.40861 30.2338 6.75783C29.9178 6.30081 29.5685 5.85637 29.1011 5.54475C27.0704 4.19098 24.9372 3.3538 22.59 2.71668C20.4628 2.13931 18.112 1.90173 15.918 1.86899C14.4177 1.84659 13.0919 1.76641 11.7746 2.54129C10.2671 3.42807 8.69429 3.84769 7.6092 5.35475C6.30431 7.1671 4.60802 8.66766 3.50229 10.6309C2.64883 12.1462 2.54295 14.0215 2.1869 15.6878C1.98127 16.6502 1.66533 19.4746 2.1869 18.6401C2.25922 18.5244 2.29079 18.219 2.31844 18.114C2.57707 17.1312 2.85851 16.1543 3.10767 15.169C3.30834 14.3754 3.45911 13.5725 3.66306 12.7794C4.0408 11.3104 4.90923 9.83527 5.97228 8.76013C7.86999 6.84086 10.5065 5.58264 12.9292 4.49245C15.317 3.41795 18.7145 3.12528 21.2015 3.7836C22.7547 4.19474 24.2443 4.50751 25.4984 5.55937C26.3284 6.25545 27.1145 7.06824 27.8661 7.84667C28.3154 8.31202 28.9514 8.79978 29.1815 9.43244C29.3839 9.98913 28.948 9.23538 28.8161 9.06706C28.3354 8.45381 27.7995 7.88461 27.1646 7.42283C26.3321 6.81741 24.9453 6.56702 23.9784 6.3486C21.9501 5.89037 19.9422 5.63087 17.8765 5.47898C15.3298 5.29172 12.7268 5.86271 10.5469 7.27667C9.05957 8.24142 7.96197 9.49029 6.70305 10.7259C5.95872 11.4564 4.5351 12.5309 4.18921 13.5686" stroke="#9AC6EE" stroke-width="2.63961" stroke-linecap="round"/>
</svg>
