<svg width="64" height="50" viewBox="0 0 64 50" fill="none" xmlns="http://www.w3.org/2000/svg">
<path d="M44.6279 44.2713C44.483 44.292 45.6969 45.2055 45.8702 45.3163C46.4006 45.6558 47.2211 45.9193 47.8506 45.974C48.8586 46.0617 49.8851 46.1892 50.8979 46.0836C52.7031 45.8956 54.2777 44.8092 55.6625 43.7013C57.4774 42.2495 58.1637 39.7778 57.314 37.6287C57.0775 37.0304 56.7685 36.52 56.4006 35.9917C56.2551 35.7828 55.5307 35.1744 55.9621 34.9979C57.3116 34.4458 58.7379 33.9919 59.9448 33.1564C63.1369 30.9464 62.9985 26.3086 62.1371 22.9329C61.6613 21.0683 60.9829 19.114 59.8133 17.5545C58.7767 16.1724 56.4863 15.5361 54.9025 15.3183C53.8651 15.1757 52.7843 15.1579 51.7383 15.216C51.1344 15.2495 50.4156 15.624 50.4156 14.8214C50.4156 13.1925 50.3578 11.9309 49.429 10.561C47.8782 8.27347 46.2171 6.1481 44.0214 4.44447C42.783 3.48365 41.3605 2.64536 39.8121 2.33255C38.7006 2.10799 37.561 2.0437 36.4433 1.85024C34.3042 1.48002 32.6053 1.75551 30.7433 2.77832C29.7709 3.31246 29.7245 4.69436 28.5364 4.29832C25.1585 3.17236 21.7731 2.84736 18.5102 4.55409C17.1317 5.27517 15.402 6.00959 14.7979 7.54293C14.2917 8.82808 13.2065 10.9713 14.2425 12.2491C14.644 12.7442 11.1008 13.4265 10.7202 13.5206C8.86941 13.9782 7.04263 14.7632 5.34179 15.6106C4.27325 16.143 3.31954 16.813 2.82795 17.9345C2.18433 19.4027 1.88479 21.4757 2.3018 23.0279C2.62031 24.2135 3.38792 25.1138 4.3041 25.8925C5.34197 26.7747 6.41414 27.8307 7.66563 28.4064C8.35708 28.7244 9.11334 28.9412 9.82871 29.2029C10.1256 29.3115 12.1918 29.6124 12.2037 29.7437C12.2166 29.8853 11.0522 30.2079 10.8883 30.2625C10.0562 30.5399 9.36077 31.0498 8.71063 31.6364C7.09444 33.0945 6.28637 35.3431 6.64256 37.5337C6.88729 39.0388 7.99448 40.7869 8.8641 42.0206C9.34963 42.7094 9.88267 43.4661 10.4426 44.096C11.5716 45.3662 13.3017 46.4703 14.8272 47.1944C15.9639 47.734 17.0787 48.0178 18.3349 48.086C19.9696 48.1746 22.6469 48.524 24.1079 47.4283" stroke="#94CBFF" stroke-width="2.63961" stroke-linecap="round"/>
</svg>
