<svg width="19" height="18" viewBox="0 0 19 18" fill="none" xmlns="http://www.w3.org/2000/svg">
<path d="M6.88618 16.0237C4.52832 16.0237 11.7574 16.6165 13.9549 15.7619C16.1379 14.913 16.9133 14.0074 16.7824 11.7825C16.5165 7.26161 3.92701 7.99954 2.4355 11.8349C0.755643 16.1545 6.61358 15.6839 9.24242 15.5525C11.5173 15.4387 14.0895 12.954 15.133 11.0756C16.3877 8.8173 13.0339 8.19737 11.5987 7.54126C9.24506 6.46533 5.58818 6.59294 3.79688 8.48376C1.90331 10.4825 4.04983 11.3113 5.9175 11.3113C9.14374 11.3113 11.5128 10.1182 13.1171 7.07001C15.2261 3.06296 4.63739 0.813668 3.61362 5.42064C2.93079 8.49336 7.38337 8.48376 9.24242 8.48376C11.965 8.48376 12.7841 7.15843 14.6618 5.65627C16.9855 3.79726 5.94368 -0.723661 5.94368 4.71377" stroke="#9AC6EE" stroke-width="3" stroke-linecap="round"/>
</svg>
